{
  "asset": {
    "version": "2.0",
    "generator": "THREE.GLTFExporter r164"
  },
  "scenes": [
    {
      "name": "Scene",
      "nodes": [
        7
      ]
    }
  ],
  "scene": 0,
  "nodes": [
    {
      "matrix": [
        5,
        0,
        0,
        0,
        0,
        5,
        0,
        0,
        0,
        0,
        5,
        0,
        -183.62318420410156,
        2.204498052597046,
        -78.78250122070312,
        1
      ],
      "name": "Cubo001",
      "extras": {
        "name": "Cubo.001"
      },
      "mesh": 0
    },
    {
      "name": "Cubo010",
      "mesh": 1
    },
    {
      "name": "Cubo010_1",
      "mesh": 2
    },
    {
      "matrix": [
        5,
        0,
        0,
        0,
        0,
        5,
        0,
        0,
        0,
        0,
        5,
        0,
        -183.30372619628906,
        1.6447882652282715,
        -79.37535095214844,
        1
      ],
      "name": "Cubo002",
      "extras": {
        "name": "Cubo.002"
      },
      "children": [
        1,
        2
      ]
    },
    {
      "matrix": [
        1,
        0,
        0,
        0,
        0,
        1,
        0,
        0,
        0,
        0,
        1,
        0,
        0,
        0,
        -4.489185333251953,
        1
      ],
      "name": "profile_paths_footway",
      "extras": {
        "name": "profile_paths_footway"
      }
    },
    {
      "matrix": [
        1,
        0,
        0,
        0,
        0,
        1,
        0,
        0,
        0,
        0,
        1,
        0,
        1.6747093200683594,
        -1.536611557006836,
        -1.9878616333007812,
        1
      ],
      "name": "map_2osm_paths_footway",
      "extras": {
        "name": "map_2.osm_paths_footway"
      }
    },
    {
      "matrix": [
        200,
        0,
        0,
        0,
        0,
        1,
        0,
        0,
        0,
        0,
        275,
        0,
        -6.3892974853515625,
        -2.3982253074645996,
        2.442138671875,
        1
      ],
      "name": "Plano",
      "extras": {
        "name": "Plano"
      },
      "mesh": 3
    },
    {
      "name": "universidad2.glb",
      "children": [
        0,
        3,
        4,
        5,
        6
      ]
    }
  ],
  "bufferViews": [
    {
      "buffer": 0,
      "byteOffset": 0,
      "byteLength": 1488,
      "target": 34962,
      "byteStride": 12
    },
    {
      "buffer": 0,
      "byteOffset": 1488,
      "byteLength": 1488,
      "target": 34962,
      "byteStride": 12
    },
    {
      "buffer": 0,
      "byteOffset": 2976,
      "byteLength": 992,
      "target": 34962,
      "byteStride": 8
    },
    {
      "buffer": 0,
      "byteOffset": 3968,
      "byteLength": 372,
      "target": 34963
    },
    {
      "buffer": 0,
      "byteOffset": 4340,
      "byteLength": 34644,
      "target": 34962,
      "byteStride": 12
    },
    {
      "buffer": 0,
      "byteOffset": 38984,
      "byteLength": 34644,
      "target": 34962,
      "byteStride": 12
    },
    {
      "buffer": 0,
      "byteOffset": 73628,
      "byteLength": 23096,
      "target": 34962,
      "byteStride": 8
    },
    {
      "buffer": 0,
      "byteOffset": 96724,
      "byteLength": 23096,
      "target": 34962,
      "byteStride": 8
    },
    {
      "buffer": 0,
      "byteOffset": 119820,
      "byteLength": 9780,
      "target": 34963
    },
    {
      "buffer": 0,
      "byteOffset": 129600,
      "byteLength": 2784,
      "target": 34962,
      "byteStride": 12
    },
    {
      "buffer": 0,
      "byteOffset": 132384,
      "byteLength": 2784,
      "target": 34962,
      "byteStride": 12
    },
    {
      "buffer": 0,
      "byteOffset": 135168,
      "byteLength": 1856,
      "target": 34962,
      "byteStride": 8
    },
    {
      "buffer": 0,
      "byteOffset": 137024,
      "byteLength": 1856,
      "target": 34962,
      "byteStride": 8
    },
    {
      "buffer": 0,
      "byteOffset": 138880,
      "byteLength": 1068,
      "target": 34963
    },
    {
      "buffer": 0,
      "byteOffset": 139948,
      "byteLength": 48,
      "target": 34962,
      "byteStride": 12
    },
    {
      "buffer": 0,
      "byteOffset": 139996,
      "byteLength": 48,
      "target": 34962,
      "byteStride": 12
    },
    {
      "buffer": 0,
      "byteOffset": 140044,
      "byteLength": 32,
      "target": 34962,
      "byteStride": 8
    },
    {
      "buffer": 0,
      "byteOffset": 140076,
      "byteLength": 12,
      "target": 34963
    }
  ],
  "buffers": [
    {
      "byteLength": 140088,
      "uri": "data:application/octet-stream;base64,"
    }
  ],
  "accessors": [
    {
      "bufferView": 0,
      "componentType": 5126,
      "count": 124,
      "max": [
        2.0872490406036377,
        0.49005043506622314,
        3.927436590194702
      ],
      "min": [
        -2.1553921699523926,
        -0.3979853689670563,
        -0.3152046203613281
      ],
      "type": "VEC3"
    },
    {
      "bufferView": 1,
      "componentType": 5126,
      "count": 124,
      "max": [
        1,
        1,
        1
      ],
      "min": [
        -1,
        -1,
        -1
      ],
      "type": "VEC3"
    },
    {
      "bufferView": 2,
      "componentType": 5126,
      "count": 124,
      "max": [
        1,
        1
      ],
      "min": [
        0,
        0
      ],
      "type": "VEC2"
    },
    {
      "bufferView": 3,
      "componentType": 5123,
      "count": 186,
      "max": [
        123
      ],
      "min": [
        0
      ],
      "type": "SCALAR"
    },
    {
      "bufferView": 4,
      "componentType": 5126,
      "count": 2887,
      "max": [
        53.686649322509766,
        4.2938385009765625,
        43.31856155395508
      ],
      "min": [
        -2.1553921699523926,
        -0.7475756406784058,
        -1.9752130508422852
      ],
      "type": "VEC3"
    },
    {
      "bufferView": 5,
      "componentType": 5126,
      "count": 2887,
      "max": [
        1,
        1,
        1
      ],
      "min": [
        -1,
        -1,
        -1
      ],
      "type": "VEC3"
    },
    {
      "bufferView": 6,
      "componentType": 5126,
      "count": 2887,
      "max": [
        1,
        1
      ],
      "min": [
        0,
        0
      ],
      "type": "VEC2"
    },
    {
      "bufferView": 7,
      "componentType": 5126,
      "count": 2887,
      "max": [
        1,
        1
      ],
      "min": [
        0,
        0
      ],
      "type": "VEC2"
    },
    {
      "bufferView": 8,
      "componentType": 5123,
      "count": 4890,
      "max": [
        2886
      ],
      "min": [
        0
      ],
      "type": "SCALAR"
    },
    {
      "bufferView": 9,
      "componentType": 5126,
      "count": 232,
      "max": [
        53.686649322509766,
        2.879477024078369,
        43.31856155395508
      ],
      "min": [
        26.006378173828125,
        0.17077350616455078,
        -1.9752130508422852
      ],
      "type": "VEC3"
    },
    {
      "bufferView": 10,
      "componentType": 5126,
      "count": 232,
      "max": [
        0,
        1,
        0
      ],
      "min": [
        0,
        1,
        0
      ],
      "type": "VEC3"
    },
    {
      "bufferView": 11,
      "componentType": 5126,
      "count": 232,
      "max": [
        0,
        1
      ],
      "min": [
        0,
        1
      ],
      "type": "VEC2"
    },
    {
      "bufferView": 12,
      "componentType": 5126,
      "count": 232,
      "max": [
        0,
        1
      ],
      "min": [
        0,
        1
      ],
      "type": "VEC2"
    },
    {
      "bufferView": 13,
      "componentType": 5123,
      "count": 534,
      "max": [
        231
      ],
      "min": [
        0
      ],
      "type": "SCALAR"
    },
    {
      "bufferView": 14,
      "componentType": 5126,
      "count": 4,
      "max": [
        1,
        0,
        1
      ],
      "min": [
        -1,
        0,
        -1
      ],
      "type": "VEC3"
    },
    {
      "bufferView": 15,
      "componentType": 5126,
      "count": 4,
      "max": [
        0,
        1,
        0
      ],
      "min": [
        0,
        1,
        0
      ],
      "type": "VEC3"
    },
    {
      "bufferView": 16,
      "componentType": 5126,
      "count": 4,
      "max": [
        1,
        1
      ],
      "min": [
        0,
        0
      ],
      "type": "VEC2"
    },
    {
      "bufferView": 17,
      "componentType": 5123,
      "count": 6,
      "max": [
        3
      ],
      "min": [
        0
      ],
      "type": "SCALAR"
    }
  ],
  "materials": [
    {
      "pbrMetallicRoughness": {
        "metallicFactor": 1,
        "roughnessFactor": 1
      }
    },
    {
      "pbrMetallicRoughness": {
        "baseColorFactor": [
          1,
          0.5,
          0.20000000298023224,
          1
        ],
        "metallicFactor": 0,
        "roughnessFactor": 0.4000000059604645
      },
      "doubleSided": true,
      "name": "wall"
    },
    {
      "pbrMetallicRoughness": {
        "baseColorFactor": [
          0.28999999165534973,
          0.25,
          0.20999999344348907,
          1
        ],
        "metallicFactor": 0,
        "roughnessFactor": 0.4000000059604645
      },
      "doubleSided": true,
      "name": "roof"
    }
  ],
  "meshes": [
    {
      "primitives": [
        {
          "mode": 4,
          "attributes": {
            "POSITION": 0,
            "NORMAL": 1,
            "TEXCOORD_0": 2
          },
          "indices": 3,
          "material": 0
        }
      ]
    },
    {
      "primitives": [
        {
          "mode": 4,
          "attributes": {
            "POSITION": 4,
            "NORMAL": 5,
            "TEXCOORD_0": 6,
            "TEXCOORD_1": 7
          },
          "indices": 8,
          "material": 1
        }
      ]
    },
    {
      "primitives": [
        {
          "mode": 4,
          "attributes": {
            "POSITION": 9,
            "NORMAL": 10,
            "TEXCOORD_0": 11,
            "TEXCOORD_1": 12
          },
          "indices": 13,
          "material": 2
        }
      ]
    },
    {
      "primitives": [
        {
          "mode": 4,
          "attributes": {
            "POSITION": 14,
            "NORMAL": 15,
            "TEXCOORD_0": 16
          },
          "indices": 17,
          "material": 0
        }
      ]
    }
  ]
}